<svg xmlns="http://www.w3.org/2000/svg" fill="none" focusable="false" class="icon icon--picto-warranty   " viewBox="0 0 24 24"><path d="M5.25463 14C4.15672 12.6304 3.5 10.8919 3.5 9C3.5 4.58172 7.08172 1 11.5 1C15.9183 1 19.5 4.58172 19.5 9C19.5 10.8919 18.8433 12.6304 17.7454 14M5.25463 14L1.5 20L4.5 19L5.5 22L8.5 16.4185M5.25463 14C6.15126 15.1185 7.13226 15.9095 8.5 16.4185M8.5 16.4185C9.36872 16.7418 10.5187 17 11.5 17C12.5609 17 13.5736 16.7935 14.5 16.4185M17.7454 14L21.5 20L18.5 19L17.5 22L14.5 16.4185M17.7454 14C16.8949 15.0609 15.7797 15.9005 14.5 16.4185" stroke="currentColor" stroke-width="1.3" stroke-linecap="round" stroke-linejoin="round"/><path d="M8 9.72727L10.1473 12L14.5 7" stroke="currentColor" stroke-width="1.3" stroke-linecap="round" stroke-linejoin="round"/></svg>