<svg xmlns="http://www.w3.org/2000/svg" fill="none" focusable="false" class="icon icon--picto-chat   " viewBox="0 0 24 24"><path d="M18.3234 10.1404C18.3234 14.6362 14.9806 17.9327 10.473 17.9327M18.3234 10.1404C18.3234 5.64457 14.6693 2 10.1617 2C5.65412 2 2 5.0042 2 9.5C2 10.9769 2.50153 12.5042 3 13.5L2 18.2807L6.4857 16.9369C7.7184 17.6824 8.92606 17.9327 10.473 17.9327M18.3234 10.1404C19.5489 10.7827 22 12.6539 22 15C22 17.3461 21.3333 18.9776 21 19.5L21.5 22L18.5 21.5C16.6487 22.2884 12.4514 22.6788 10.473 17.9327" stroke="currentColor" stroke-width="1.3" stroke-linecap="round" stroke-linejoin="round"/></svg>