<svg xmlns="http://www.w3.org/2000/svg" fill="none" focusable="false" class="icon icon--picto-fast-delivery   " viewBox="0 0 29 24"><path d="M4 3H20V8M20 17H11.68C11.68 17 11 16 10 16M20 17V8M20 17H22.32M20 8H26.5L28 12.5V17H25.68C25.68 17 25 16 24 16M24 16C25 16 26 17 26 18C26 19 25 20 24 20C23 20 22 19 22 18C22 17.6527 22.1206 17.3054 22.32 17M24 16C23.3473 16 22.6946 16.426 22.32 17M10 16C11 16 12 17 12 18C12 19 11 20 10 20C9 20 8 19 8 18C8 17.6527 8.12061 17.3054 8.31996 17M10 16C9.3473 16 8.69459 16.426 8.31996 17M8.31996 17H4M10 12H3M10 8H1" stroke="currentColor" stroke-width="1.3" stroke-linecap="round" stroke-linejoin="round"/></svg>