<svg width="19" height="19" viewBox="0 0 19 19" fill="none" xmlns="http://www.w3.org/2000/svg">
<path d="M7.49708 12.0968C7.34667 12.0968 7.19625 12.0414 7.0775 11.9227C6.42833 11.2735 6.07208 10.4106 6.07208 9.50018C6.07208 7.6081 7.60792 6.07227 9.5 6.07227C10.4104 6.07227 11.2733 6.42852 11.9225 7.07768C12.0333 7.18852 12.0967 7.33893 12.0967 7.49727C12.0967 7.6556 12.0333 7.80602 11.9225 7.91685L7.91667 11.9227C7.79792 12.0414 7.6475 12.0968 7.49708 12.0968ZM9.5 7.25977C8.265 7.25977 7.25958 8.26518 7.25958 9.50018C7.25958 9.89602 7.3625 10.276 7.5525 10.6085L10.6083 7.55268C10.2758 7.36268 9.89583 7.25977 9.5 7.25977Z" fill="#999999"/>
<path d="M4.43333 14.654C4.29875 14.654 4.15625 14.6065 4.04541 14.5115C3.19833 13.791 2.43833 12.9044 1.78916 11.8752C0.949998 10.569 0.949998 8.43938 1.78916 7.12521C3.72083 4.10104 6.53125 2.35938 9.5 2.35938C11.2417 2.35938 12.9596 2.96104 14.4637 4.09313C14.725 4.29104 14.7804 4.66312 14.5825 4.92437C14.3846 5.18562 14.0125 5.24104 13.7512 5.04312C12.4529 4.06146 10.9804 3.54688 9.5 3.54688C6.94291 3.54688 4.49666 5.08271 2.78666 7.76646C2.19291 8.69271 2.19291 10.3077 2.78666 11.234C3.38041 12.1602 4.06125 12.9598 4.81333 13.609C5.05875 13.8227 5.09041 14.1948 4.87666 14.4481C4.76583 14.5827 4.59958 14.654 4.43333 14.654Z" fill="#999999"/>
<path d="M9.50003 16.6406C8.44711 16.6406 7.41795 16.4269 6.42836 16.0073C6.12753 15.8806 5.98503 15.5323 6.1117 15.2314C6.23836 14.9306 6.5867 14.7881 6.88753 14.9148C7.7267 15.271 8.60545 15.4531 9.49211 15.4531C12.0492 15.4531 14.4954 13.9173 16.2054 11.2335C16.7992 10.3073 16.7992 8.69228 16.2054 7.76603C15.96 7.37811 15.6909 7.00602 15.4059 6.65769C15.2 6.40436 15.2396 6.03227 15.4929 5.81852C15.7463 5.61269 16.1184 5.64436 16.3321 5.90561C16.6409 6.28561 16.9417 6.69727 17.2109 7.12477C18.05 8.43102 18.05 10.5606 17.2109 11.8748C15.2792 14.8989 12.4688 16.6406 9.50003 16.6406Z" fill="#999999"/>
<path d="M10.0462 12.8804C9.76915 12.8804 9.51582 12.6825 9.4604 12.3975C9.39707 12.0729 9.61082 11.7642 9.9354 11.7088C10.8062 11.5504 11.5346 10.8221 11.6929 9.95128C11.7562 9.6267 12.065 9.42086 12.3896 9.47628C12.7141 9.53961 12.9279 9.84836 12.8646 10.1729C12.6112 11.5425 11.5187 12.6271 10.1571 12.8804C10.1175 12.8725 10.0858 12.8804 10.0462 12.8804Z" fill="#999999"/>
<path d="M1.58335 18.0104C1.43293 18.0104 1.28251 17.955 1.16376 17.8362C0.934181 17.6067 0.934181 17.2267 1.16376 16.9971L7.07751 11.0833C7.3071 10.8537 7.6871 10.8537 7.91668 11.0833C8.14627 11.3129 8.14627 11.6929 7.91668 11.9225L2.00293 17.8362C1.88418 17.955 1.73376 18.0104 1.58335 18.0104Z" fill="#999999"/>
<path d="M11.5029 8.09097C11.3525 8.09097 11.2021 8.03555 11.0833 7.9168C10.8537 7.68722 10.8537 7.30722 11.0833 7.07764L16.9971 1.16389C17.2267 0.934303 17.6067 0.934303 17.8362 1.16389C18.0658 1.39347 18.0658 1.77347 17.8362 2.00305L11.9225 7.9168C11.8037 8.03555 11.6533 8.09097 11.5029 8.09097Z" fill="#999999"/>
</svg>
