<svg width="19" height="19" viewBox="0 0 19 19" fill="none" xmlns="http://www.w3.org/2000/svg">
<path d="M9.5 12.9281C7.60792 12.9281 6.07208 11.3923 6.07208 9.50018C6.07208 7.6081 7.60792 6.07227 9.5 6.07227C11.3921 6.07227 12.9279 7.6081 12.9279 9.50018C12.9279 11.3923 11.3921 12.9281 9.5 12.9281ZM9.5 7.25977C8.265 7.25977 7.25958 8.26518 7.25958 9.50018C7.25958 10.7352 8.265 11.7406 9.5 11.7406C10.735 11.7406 11.7404 10.7352 11.7404 9.50018C11.7404 8.26518 10.735 7.25977 9.5 7.25977Z" fill="#121212"/>
<path d="M9.49998 16.641C6.52331 16.641 3.7129 14.8994 1.78123 11.8752C0.942064 10.569 0.942064 8.43938 1.78123 7.12521C3.72081 4.10104 6.53123 2.35938 9.49998 2.35938C12.4687 2.35938 15.2791 4.10104 17.2108 7.12521C18.05 8.43146 18.05 10.561 17.2108 11.8752C15.2791 14.8994 12.4687 16.641 9.49998 16.641ZM9.49998 3.54688C6.9429 3.54688 4.49665 5.08271 2.78665 7.76646C2.1929 8.69271 2.1929 10.3077 2.78665 11.234C4.49665 13.9177 6.9429 15.4535 9.49998 15.4535C12.0571 15.4535 14.5033 13.9177 16.2133 11.234C16.8071 10.3077 16.8071 8.69271 16.2133 7.76646C14.5033 5.08271 12.0571 3.54688 9.49998 3.54688Z" fill="#121212"/>
</svg>
