<svg xmlns="http://www.w3.org/2000/svg" focusable="false" class="icon icon--instagram   " viewBox="0 0 16 16"><path fill-rule="evenodd" clip-rule="evenodd" d="M8 0C5.827 0 5.555.01 4.702.048 3.85.087 3.269.222 2.76.42a3.921 3.921 0 00-1.417.923c-.445.444-.719.89-.923 1.417-.198.509-.333 1.09-.372 1.942C.01 5.555 0 5.827 0 8s.01 2.445.048 3.298c.039.852.174 1.433.372 1.942.204.526.478.973.923 1.417.444.445.89.719 1.417.923.509.198 1.09.333 1.942.372C5.555 15.99 5.827 16 8 16s2.445-.01 3.298-.048c.852-.039 1.433-.174 1.942-.372a3.922 3.922 0 001.417-.923c.445-.444.719-.89.923-1.417.198-.509.333-1.09.372-1.942C15.99 10.445 16 10.173 16 8s-.01-2.445-.048-3.298c-.039-.852-.174-1.433-.372-1.942a3.922 3.922 0 00-.923-1.417A3.921 3.921 0 0013.24.42c-.509-.198-1.09-.333-1.942-.372C10.445.01 10.173 0 8 0zm0 1.441c2.136 0 2.39.009 3.233.047.78.036 1.203.166 1.485.276.374.145.64.318.92.598.28.28.453.546.598.92.11.282.24.705.276 1.485.038.844.047 1.097.047 3.233s-.009 2.39-.047 3.233c-.036.78-.166 1.203-.276 1.485-.145.374-.318.64-.598.92-.28.28-.546.453-.92.598-.282.11-.705.24-1.485.276-.844.038-1.097.047-3.233.047s-2.39-.009-3.233-.047c-.78-.036-1.203-.166-1.485-.276a2.479 2.479 0 01-.92-.598 2.478 2.478 0 01-.598-.92c-.11-.282-.24-.705-.276-1.485-.038-.844-.047-1.097-.047-3.233s.009-2.39.047-3.233c.036-.78.166-1.203.276-1.485.145-.374.318-.64.598-.92.28-.28.546-.453.92-.598.282-.11.705-.24 1.485-.276.844-.038 1.097-.047 3.233-.047zm0 9.226a2.667 2.667 0 110-5.334 2.667 2.667 0 010 5.334zm0-6.775a4.108 4.108 0 100 8.216 4.108 4.108 0 000-8.216zm5.23-.162a.96.96 0 11-1.92 0 .96.96 0 011.92 0z" fill="currentColor"/></svg>