<svg xmlns="http://www.w3.org/2000/svg" fill="none" focusable="false" class="icon icon--tiktok   " viewBox="0 0 14 16"><path d="M13.6893 6.47331C13.5586 6.48602 13.4273 6.49268 13.296 6.49327C11.8552 6.49347 10.5114 5.76723 9.72211 4.56182V11.1389C9.72211 13.8236 7.54571 16 4.86099 16C2.17627 16 -0.00012207 13.8236 -0.00012207 11.1389C-0.00012207 8.45417 2.17627 6.27777 4.86099 6.27777C4.96247 6.27777 5.06166 6.28689 5.16143 6.29317V8.68866C5.06166 8.67669 4.96361 8.65845 4.86099 8.65845C3.49077 8.65845 2.37998 9.76923 2.37998 11.1395C2.37998 12.5097 3.49077 13.6205 4.86099 13.6205C6.23148 13.6205 7.44177 12.5407 7.44177 11.1702L7.46571 0H9.75745C9.97355 2.05512 11.6307 3.66035 13.6916 3.81102V6.47331" fill="currentColor"/></svg>